<mxfile host="app.diagrams.net" modified="2024-01-26T23:23:26.339Z" agent="Mozilla/5.0 (Windows NT 10.0; Win64; x64) AppleWebKit/537.36 (KHTML, like Gecko) Chrome/120.0.0.0 Safari/537.36" etag="1N8MP2wk_trUqbkcFhkl" version="23.0.2" type="google">
  <diagram name="‫صفحه - 1‬" id="utcDuy3W3_r439DJj2dZ">
    <mxGraphModel grid="1" page="1" gridSize="10" guides="1" tooltips="1" connect="1" arrows="1" fold="1" pageScale="1" pageWidth="827" pageHeight="1169" math="0" shadow="0">
      <root>
        <mxCell id="0" />
        <mxCell id="1" parent="0" />
        <mxCell id="zFmrb3ODmiAA_OyQYrL9-49" value="ارسال نامه در انتظار پاسخ" style="swimlane;html=1;childLayout=stackLayout;resizeParent=1;resizeParentMax=0;horizontal=0;startSize=20;horizontalStack=0;" vertex="1" parent="1">
          <mxGeometry x="280" y="130" width="1710" height="660" as="geometry" />
        </mxCell>
        <mxCell id="zFmrb3ODmiAA_OyQYrL9-50" value="کاربر" style="swimlane;html=1;startSize=20;horizontal=0;" vertex="1" parent="zFmrb3ODmiAA_OyQYrL9-49">
          <mxGeometry x="20" width="1690" height="390" as="geometry">
            <mxRectangle x="20" width="490" height="30" as="alternateBounds" />
          </mxGeometry>
        </mxCell>
        <mxCell id="zFmrb3ODmiAA_OyQYrL9-51" style="edgeStyle=orthogonalEdgeStyle;rounded=0;orthogonalLoop=1;jettySize=auto;html=1;" edge="1" parent="zFmrb3ODmiAA_OyQYrL9-50" source="zFmrb3ODmiAA_OyQYrL9-52" target="zFmrb3ODmiAA_OyQYrL9-53">
          <mxGeometry relative="1" as="geometry">
            <mxPoint x="110" y="82" as="targetPoint" />
          </mxGeometry>
        </mxCell>
        <mxCell id="zFmrb3ODmiAA_OyQYrL9-52" value="" style="ellipse;fillColor=strokeColor;html=1;" vertex="1" parent="zFmrb3ODmiAA_OyQYrL9-50">
          <mxGeometry x="45" y="67" width="30" height="30" as="geometry" />
        </mxCell>
        <mxCell id="zFmrb3ODmiAA_OyQYrL9-53" value="&lt;font style=&quot;font-size: 14px;&quot;&gt;درخواست ارسال نامه جدید&lt;/font&gt;" style="html=1;align=center;verticalAlign=top;rounded=1;absoluteArcSize=1;arcSize=13;dashed=0;whiteSpace=wrap;" vertex="1" parent="zFmrb3ODmiAA_OyQYrL9-50">
          <mxGeometry x="108" y="62" width="140" height="40" as="geometry" />
        </mxCell>
        <mxCell id="zFmrb3ODmiAA_OyQYrL9-56" value="&lt;span style=&quot;font-size: 14px;&quot;&gt;وارد کردن اطلاعات گیرنده نامه&lt;/span&gt;" style="html=1;align=center;verticalAlign=top;rounded=1;absoluteArcSize=1;arcSize=13;dashed=0;whiteSpace=wrap;" vertex="1" parent="zFmrb3ODmiAA_OyQYrL9-50">
          <mxGeometry x="384" y="27" width="140" height="40" as="geometry" />
        </mxCell>
        <mxCell id="zFmrb3ODmiAA_OyQYrL9-57" value="&lt;span style=&quot;font-size: 14px;&quot;&gt;وارد کردن عنوان نامه&lt;/span&gt;" style="html=1;align=center;verticalAlign=top;rounded=1;absoluteArcSize=1;arcSize=13;dashed=0;whiteSpace=wrap;" vertex="1" parent="zFmrb3ODmiAA_OyQYrL9-50">
          <mxGeometry x="384" y="77" width="140" height="40" as="geometry" />
        </mxCell>
        <mxCell id="zFmrb3ODmiAA_OyQYrL9-58" value="&lt;span style=&quot;font-size: 14px;&quot;&gt;وارد کردن متن نامه&lt;/span&gt;" style="html=1;align=center;verticalAlign=top;rounded=1;absoluteArcSize=1;arcSize=13;dashed=0;whiteSpace=wrap;" vertex="1" parent="zFmrb3ODmiAA_OyQYrL9-50">
          <mxGeometry x="384" y="128" width="140" height="40" as="geometry" />
        </mxCell>
        <mxCell id="zFmrb3ODmiAA_OyQYrL9-61" style="rounded=0;orthogonalLoop=1;jettySize=auto;html=1;exitX=1;exitY=0.5;exitDx=0;exitDy=0;" edge="1" parent="zFmrb3ODmiAA_OyQYrL9-50" source="zFmrb3ODmiAA_OyQYrL9-56">
          <mxGeometry relative="1" as="geometry">
            <mxPoint x="674.0049999999999" y="133.0200000000001" as="sourcePoint" />
            <mxPoint x="594" y="47" as="targetPoint" />
          </mxGeometry>
        </mxCell>
        <mxCell id="zFmrb3ODmiAA_OyQYrL9-62" style="edgeStyle=orthogonalEdgeStyle;rounded=0;orthogonalLoop=1;jettySize=auto;html=1;" edge="1" parent="zFmrb3ODmiAA_OyQYrL9-50" source="zFmrb3ODmiAA_OyQYrL9-63" target="zFmrb3ODmiAA_OyQYrL9-66">
          <mxGeometry relative="1" as="geometry" />
        </mxCell>
        <mxCell id="zFmrb3ODmiAA_OyQYrL9-63" value="" style="html=1;points=[];perimeter=orthogonalPerimeter;fillColor=strokeColor;" vertex="1" parent="zFmrb3ODmiAA_OyQYrL9-50">
          <mxGeometry x="596" y="25" width="5" height="309" as="geometry" />
        </mxCell>
        <mxCell id="zFmrb3ODmiAA_OyQYrL9-64" style="rounded=0;orthogonalLoop=1;jettySize=auto;html=1;exitX=1;exitY=0.5;exitDx=0;exitDy=0;" edge="1" parent="zFmrb3ODmiAA_OyQYrL9-50" source="zFmrb3ODmiAA_OyQYrL9-57">
          <mxGeometry relative="1" as="geometry">
            <mxPoint x="627" y="103.5" as="sourcePoint" />
            <mxPoint x="594" y="97" as="targetPoint" />
          </mxGeometry>
        </mxCell>
        <mxCell id="zFmrb3ODmiAA_OyQYrL9-65" style="rounded=0;orthogonalLoop=1;jettySize=auto;html=1;exitX=1;exitY=0.5;exitDx=0;exitDy=0;" edge="1" parent="zFmrb3ODmiAA_OyQYrL9-50" source="zFmrb3ODmiAA_OyQYrL9-58">
          <mxGeometry relative="1" as="geometry">
            <mxPoint x="628" y="106.5" as="sourcePoint" />
            <mxPoint x="594" y="148" as="targetPoint" />
          </mxGeometry>
        </mxCell>
        <mxCell id="zFmrb3ODmiAA_OyQYrL9-66" value="تایید اطلاعات نامه" style="shape=mxgraph.uml25.action;html=1;align=center;verticalAlign=middle;absoluteArcSize=1;arcSize=10;dashed=0;spacingRight=10;whiteSpace=wrap;" vertex="1" parent="zFmrb3ODmiAA_OyQYrL9-50">
          <mxGeometry x="660" y="158" width="146" height="43" as="geometry" />
        </mxCell>
        <mxCell id="zFmrb3ODmiAA_OyQYrL9-67" value="&lt;font style=&quot;font-size: 14px;&quot;&gt;وارد کردن دریافت کنندگان رونوشت&lt;/font&gt;" style="html=1;align=center;verticalAlign=top;rounded=1;absoluteArcSize=1;arcSize=13;dashed=0;whiteSpace=wrap;" vertex="1" parent="zFmrb3ODmiAA_OyQYrL9-50">
          <mxGeometry x="384" y="180" width="140" height="40" as="geometry" />
        </mxCell>
        <mxCell id="zFmrb3ODmiAA_OyQYrL9-69" style="rounded=0;orthogonalLoop=1;jettySize=auto;html=1;exitX=1;exitY=0.5;exitDx=0;exitDy=0;" edge="1" parent="zFmrb3ODmiAA_OyQYrL9-50" source="zFmrb3ODmiAA_OyQYrL9-67">
          <mxGeometry relative="1" as="geometry">
            <mxPoint x="633" y="206.5" as="sourcePoint" />
            <mxPoint x="594" y="200" as="targetPoint" />
          </mxGeometry>
        </mxCell>
        <mxCell id="zFmrb3ODmiAA_OyQYrL9-97" value="&lt;span style=&quot;font-size: 14px;&quot;&gt;وارد کردن مهلت پاسخ&lt;/span&gt;" style="html=1;align=center;verticalAlign=top;rounded=1;absoluteArcSize=1;arcSize=13;dashed=0;whiteSpace=wrap;" vertex="1" parent="zFmrb3ODmiAA_OyQYrL9-50">
          <mxGeometry x="385" y="230" width="140" height="40" as="geometry" />
        </mxCell>
        <mxCell id="zFmrb3ODmiAA_OyQYrL9-100" value="&lt;font style=&quot;font-size: 14px;&quot;&gt;وارد کردن تاریخ یادآور&lt;/font&gt;" style="html=1;align=center;verticalAlign=top;rounded=1;absoluteArcSize=1;arcSize=13;dashed=0;whiteSpace=wrap;" vertex="1" parent="zFmrb3ODmiAA_OyQYrL9-50">
          <mxGeometry x="384" y="293" width="140" height="40" as="geometry" />
        </mxCell>
        <mxCell id="zFmrb3ODmiAA_OyQYrL9-101" style="rounded=0;orthogonalLoop=1;jettySize=auto;html=1;" edge="1" parent="zFmrb3ODmiAA_OyQYrL9-50" source="zFmrb3ODmiAA_OyQYrL9-97" target="zFmrb3ODmiAA_OyQYrL9-100">
          <mxGeometry relative="1" as="geometry">
            <mxPoint x="309" y="234" as="sourcePoint" />
            <mxPoint x="401" y="262" as="targetPoint" />
          </mxGeometry>
        </mxCell>
        <mxCell id="zFmrb3ODmiAA_OyQYrL9-102" style="rounded=0;orthogonalLoop=1;jettySize=auto;html=1;exitX=1;exitY=0.5;exitDx=0;exitDy=0;entryX=-0.586;entryY=0.936;entryDx=0;entryDy=0;entryPerimeter=0;" edge="1" parent="zFmrb3ODmiAA_OyQYrL9-50" source="zFmrb3ODmiAA_OyQYrL9-100" target="zFmrb3ODmiAA_OyQYrL9-63">
          <mxGeometry relative="1" as="geometry">
            <mxPoint x="634" y="308.5" as="sourcePoint" />
            <mxPoint x="590" y="314" as="targetPoint" />
          </mxGeometry>
        </mxCell>
        <mxCell id="zFmrb3ODmiAA_OyQYrL9-116" style="rounded=0;orthogonalLoop=1;jettySize=auto;html=1;exitX=1;exitY=0.5;exitDx=0;exitDy=0;" edge="1" parent="zFmrb3ODmiAA_OyQYrL9-50">
          <mxGeometry relative="1" as="geometry">
            <mxPoint x="313" y="48" as="sourcePoint" />
            <mxPoint x="383" y="48" as="targetPoint" />
          </mxGeometry>
        </mxCell>
        <mxCell id="zFmrb3ODmiAA_OyQYrL9-117" value="" style="html=1;points=[];perimeter=orthogonalPerimeter;fillColor=strokeColor;" vertex="1" parent="zFmrb3ODmiAA_OyQYrL9-50">
          <mxGeometry x="312" y="24" width="5" height="309" as="geometry" />
        </mxCell>
        <mxCell id="zFmrb3ODmiAA_OyQYrL9-118" style="rounded=0;orthogonalLoop=1;jettySize=auto;html=1;exitX=1;exitY=0.5;exitDx=0;exitDy=0;" edge="1" parent="zFmrb3ODmiAA_OyQYrL9-50">
          <mxGeometry relative="1" as="geometry">
            <mxPoint x="313" y="98" as="sourcePoint" />
            <mxPoint x="383" y="98" as="targetPoint" />
          </mxGeometry>
        </mxCell>
        <mxCell id="zFmrb3ODmiAA_OyQYrL9-119" style="rounded=0;orthogonalLoop=1;jettySize=auto;html=1;exitX=1;exitY=0.5;exitDx=0;exitDy=0;" edge="1" parent="zFmrb3ODmiAA_OyQYrL9-50">
          <mxGeometry relative="1" as="geometry">
            <mxPoint x="313" y="149" as="sourcePoint" />
            <mxPoint x="383" y="149" as="targetPoint" />
          </mxGeometry>
        </mxCell>
        <mxCell id="zFmrb3ODmiAA_OyQYrL9-120" style="rounded=0;orthogonalLoop=1;jettySize=auto;html=1;exitX=1;exitY=0.5;exitDx=0;exitDy=0;" edge="1" parent="zFmrb3ODmiAA_OyQYrL9-50">
          <mxGeometry relative="1" as="geometry">
            <mxPoint x="313" y="201" as="sourcePoint" />
            <mxPoint x="383" y="201" as="targetPoint" />
          </mxGeometry>
        </mxCell>
        <mxCell id="zFmrb3ODmiAA_OyQYrL9-121" style="rounded=0;orthogonalLoop=1;jettySize=auto;html=1;exitX=1;exitY=0.5;exitDx=0;exitDy=0;" edge="1" parent="zFmrb3ODmiAA_OyQYrL9-50" target="zFmrb3ODmiAA_OyQYrL9-97">
          <mxGeometry relative="1" as="geometry">
            <mxPoint x="313" y="250" as="sourcePoint" />
            <mxPoint x="382.07000000000016" y="250.22399999999993" as="targetPoint" />
          </mxGeometry>
        </mxCell>
        <mxCell id="zFmrb3ODmiAA_OyQYrL9-70" value="سامانه" style="swimlane;html=1;startSize=20;horizontal=0;" vertex="1" parent="zFmrb3ODmiAA_OyQYrL9-49">
          <mxGeometry x="20" y="390" width="1690" height="270" as="geometry" />
        </mxCell>
        <mxCell id="zFmrb3ODmiAA_OyQYrL9-71" value="&lt;font style=&quot;font-size: 14px;&quot;&gt;درخواست اطلاعات نامه&lt;/font&gt;" style="html=1;align=center;verticalAlign=top;rounded=1;absoluteArcSize=1;arcSize=13;dashed=0;whiteSpace=wrap;" vertex="1" parent="zFmrb3ODmiAA_OyQYrL9-70">
          <mxGeometry x="108" y="30" width="140" height="40" as="geometry" />
        </mxCell>
        <mxCell id="zFmrb3ODmiAA_OyQYrL9-72" style="edgeStyle=orthogonalEdgeStyle;rounded=0;orthogonalLoop=1;jettySize=auto;html=1;" edge="1" parent="zFmrb3ODmiAA_OyQYrL9-70" source="zFmrb3ODmiAA_OyQYrL9-78" target="zFmrb3ODmiAA_OyQYrL9-73">
          <mxGeometry relative="1" as="geometry">
            <Array as="points" />
          </mxGeometry>
        </mxCell>
        <mxCell id="zFmrb3ODmiAA_OyQYrL9-73" value="" style="rhombus;" vertex="1" parent="zFmrb3ODmiAA_OyQYrL9-70">
          <mxGeometry x="1035" y="84" width="30" height="30" as="geometry" />
        </mxCell>
        <mxCell id="zFmrb3ODmiAA_OyQYrL9-74" style="edgeStyle=orthogonalEdgeStyle;rounded=0;orthogonalLoop=1;jettySize=auto;html=1;" edge="1" parent="zFmrb3ODmiAA_OyQYrL9-70" source="zFmrb3ODmiAA_OyQYrL9-75" target="zFmrb3ODmiAA_OyQYrL9-91">
          <mxGeometry relative="1" as="geometry" />
        </mxCell>
        <mxCell id="zFmrb3ODmiAA_OyQYrL9-75" value="&lt;font style=&quot;font-size: 14px;&quot;&gt;اعلام نامعتبر بودن اطلاعات&lt;/font&gt;" style="html=1;align=center;verticalAlign=top;rounded=1;absoluteArcSize=1;arcSize=13;dashed=0;whiteSpace=wrap;" vertex="1" parent="zFmrb3ODmiAA_OyQYrL9-70">
          <mxGeometry x="980" y="210" width="140" height="40" as="geometry" />
        </mxCell>
        <mxCell id="zFmrb3ODmiAA_OyQYrL9-76" style="edgeStyle=orthogonalEdgeStyle;rounded=0;orthogonalLoop=1;jettySize=auto;html=1;" edge="1" parent="zFmrb3ODmiAA_OyQYrL9-70" source="zFmrb3ODmiAA_OyQYrL9-73" target="zFmrb3ODmiAA_OyQYrL9-75">
          <mxGeometry relative="1" as="geometry" />
        </mxCell>
        <mxCell id="zFmrb3ODmiAA_OyQYrL9-77" value="&lt;font style=&quot;font-size: 12px;&quot;&gt;وگرنه&lt;/font&gt;" style="edgeLabel;html=1;align=center;verticalAlign=middle;resizable=0;points=[];" connectable="0" vertex="1" parent="zFmrb3ODmiAA_OyQYrL9-76">
          <mxGeometry x="-0.2205" y="-2" relative="1" as="geometry">
            <mxPoint x="-13" y="-11" as="offset" />
          </mxGeometry>
        </mxCell>
        <mxCell id="zFmrb3ODmiAA_OyQYrL9-78" value="بررسی اطلاعات" style="shape=mxgraph.uml25.action;html=1;align=center;verticalAlign=middle;absoluteArcSize=1;arcSize=10;dashed=0;spacingLeft=10;flipH=1;whiteSpace=wrap;" vertex="1" parent="zFmrb3ODmiAA_OyQYrL9-70">
          <mxGeometry x="868" y="25" width="150" height="50" as="geometry" />
        </mxCell>
        <mxCell id="zFmrb3ODmiAA_OyQYrL9-88" style="edgeStyle=orthogonalEdgeStyle;rounded=0;orthogonalLoop=1;jettySize=auto;html=1;" edge="1" parent="zFmrb3ODmiAA_OyQYrL9-70" source="zFmrb3ODmiAA_OyQYrL9-91" target="zFmrb3ODmiAA_OyQYrL9-90">
          <mxGeometry relative="1" as="geometry" />
        </mxCell>
        <mxCell id="zFmrb3ODmiAA_OyQYrL9-90" value="" style="ellipse;html=1;shape=endState;fillColor=strokeColor;" vertex="1" parent="zFmrb3ODmiAA_OyQYrL9-70">
          <mxGeometry x="1634" y="84" width="30" height="30" as="geometry" />
        </mxCell>
        <mxCell id="zFmrb3ODmiAA_OyQYrL9-91" value="" style="rhombus;" vertex="1" parent="zFmrb3ODmiAA_OyQYrL9-70">
          <mxGeometry x="1558" y="84" width="30" height="30" as="geometry" />
        </mxCell>
        <mxCell id="zFmrb3ODmiAA_OyQYrL9-93" style="edgeStyle=orthogonalEdgeStyle;rounded=0;orthogonalLoop=1;jettySize=auto;html=1;" edge="1" parent="zFmrb3ODmiAA_OyQYrL9-49" source="zFmrb3ODmiAA_OyQYrL9-53" target="zFmrb3ODmiAA_OyQYrL9-71">
          <mxGeometry relative="1" as="geometry">
            <Array as="points" />
          </mxGeometry>
        </mxCell>
        <mxCell id="zFmrb3ODmiAA_OyQYrL9-95" style="edgeStyle=orthogonalEdgeStyle;rounded=0;orthogonalLoop=1;jettySize=auto;html=1;" edge="1" parent="zFmrb3ODmiAA_OyQYrL9-49" source="zFmrb3ODmiAA_OyQYrL9-66" target="zFmrb3ODmiAA_OyQYrL9-78">
          <mxGeometry relative="1" as="geometry">
            <Array as="points">
              <mxPoint x="860" y="180" />
              <mxPoint x="860" y="440" />
            </Array>
          </mxGeometry>
        </mxCell>
        <mxCell id="zFmrb3ODmiAA_OyQYrL9-96" value="نامه در انتظار پاسخ" style="edgeLabel;html=1;align=center;verticalAlign=middle;resizable=0;points=[];" connectable="0" vertex="1" parent="zFmrb3ODmiAA_OyQYrL9-95">
          <mxGeometry x="-0.7829" y="2" relative="1" as="geometry">
            <mxPoint x="-7" y="-23" as="offset" />
          </mxGeometry>
        </mxCell>
        <mxCell id="6jQJCBkSoFeYwr8YWiw1-34" style="edgeStyle=orthogonalEdgeStyle;rounded=0;orthogonalLoop=1;jettySize=auto;html=1;entryX=0.164;entryY=0.412;entryDx=0;entryDy=0;entryPerimeter=0;" edge="1" parent="zFmrb3ODmiAA_OyQYrL9-49" source="zFmrb3ODmiAA_OyQYrL9-71" target="zFmrb3ODmiAA_OyQYrL9-117">
          <mxGeometry relative="1" as="geometry" />
        </mxCell>
        <mxCell id="zFmrb3ODmiAA_OyQYrL9-122" value="&lt;font style=&quot;font-size: 14px;&quot;&gt;ارسال &lt;font style=&quot;&quot;&gt;رونوشتی &lt;/font&gt;از نامه&lt;/font&gt;" style="html=1;align=center;verticalAlign=top;rounded=1;absoluteArcSize=1;arcSize=13;dashed=0;whiteSpace=wrap;" vertex="1" parent="1">
          <mxGeometry x="1591" y="541" width="140" height="40" as="geometry" />
        </mxCell>
        <mxCell id="zFmrb3ODmiAA_OyQYrL9-123" value="&lt;font style=&quot;font-size: 14px;&quot;&gt;قرار دادن نامه در مسیر ارسال به گیرنده&lt;/font&gt;" style="html=1;align=center;verticalAlign=top;rounded=1;absoluteArcSize=1;arcSize=13;dashed=0;whiteSpace=wrap;" vertex="1" parent="1">
          <mxGeometry x="1591" y="591" width="140" height="40" as="geometry" />
        </mxCell>
        <mxCell id="zFmrb3ODmiAA_OyQYrL9-124" value="&lt;span style=&quot;font-size: 14px;&quot;&gt;تنظیم مهلت پاسخ&lt;/span&gt;" style="html=1;align=center;verticalAlign=top;rounded=1;absoluteArcSize=1;arcSize=13;dashed=0;whiteSpace=wrap;" vertex="1" parent="1">
          <mxGeometry x="1591" y="642" width="140" height="40" as="geometry" />
        </mxCell>
        <mxCell id="zFmrb3ODmiAA_OyQYrL9-125" style="rounded=0;orthogonalLoop=1;jettySize=auto;html=1;exitX=1;exitY=0.5;exitDx=0;exitDy=0;" edge="1" parent="1" source="zFmrb3ODmiAA_OyQYrL9-122">
          <mxGeometry relative="1" as="geometry">
            <mxPoint x="1881.005" y="647.02" as="sourcePoint" />
            <mxPoint x="1801" y="561" as="targetPoint" />
          </mxGeometry>
        </mxCell>
        <mxCell id="zFmrb3ODmiAA_OyQYrL9-126" value="" style="html=1;points=[];perimeter=orthogonalPerimeter;fillColor=strokeColor;" vertex="1" parent="1">
          <mxGeometry x="1803" y="539" width="5" height="199" as="geometry" />
        </mxCell>
        <mxCell id="zFmrb3ODmiAA_OyQYrL9-127" style="rounded=0;orthogonalLoop=1;jettySize=auto;html=1;exitX=1;exitY=0.5;exitDx=0;exitDy=0;" edge="1" parent="1" source="zFmrb3ODmiAA_OyQYrL9-123">
          <mxGeometry relative="1" as="geometry">
            <mxPoint x="1834" y="617.5" as="sourcePoint" />
            <mxPoint x="1801" y="611" as="targetPoint" />
          </mxGeometry>
        </mxCell>
        <mxCell id="zFmrb3ODmiAA_OyQYrL9-128" style="rounded=0;orthogonalLoop=1;jettySize=auto;html=1;exitX=1;exitY=0.5;exitDx=0;exitDy=0;" edge="1" parent="1" source="zFmrb3ODmiAA_OyQYrL9-124">
          <mxGeometry relative="1" as="geometry">
            <mxPoint x="1835" y="620.5" as="sourcePoint" />
            <mxPoint x="1801" y="662" as="targetPoint" />
          </mxGeometry>
        </mxCell>
        <mxCell id="zFmrb3ODmiAA_OyQYrL9-129" value="&lt;font style=&quot;font-size: 14px;&quot;&gt;تنظیم تاریخ یادآور&lt;/font&gt;" style="html=1;align=center;verticalAlign=top;rounded=1;absoluteArcSize=1;arcSize=13;dashed=0;whiteSpace=wrap;" vertex="1" parent="1">
          <mxGeometry x="1591" y="694" width="140" height="40" as="geometry" />
        </mxCell>
        <mxCell id="zFmrb3ODmiAA_OyQYrL9-130" style="rounded=0;orthogonalLoop=1;jettySize=auto;html=1;exitX=1;exitY=0.5;exitDx=0;exitDy=0;" edge="1" parent="1" source="zFmrb3ODmiAA_OyQYrL9-129">
          <mxGeometry relative="1" as="geometry">
            <mxPoint x="1840" y="720.5" as="sourcePoint" />
            <mxPoint x="1801" y="714" as="targetPoint" />
          </mxGeometry>
        </mxCell>
        <mxCell id="zFmrb3ODmiAA_OyQYrL9-135" style="rounded=0;orthogonalLoop=1;jettySize=auto;html=1;exitX=1;exitY=0.5;exitDx=0;exitDy=0;" edge="1" parent="1">
          <mxGeometry relative="1" as="geometry">
            <mxPoint x="1520" y="562" as="sourcePoint" />
            <mxPoint x="1590" y="562" as="targetPoint" />
          </mxGeometry>
        </mxCell>
        <mxCell id="zFmrb3ODmiAA_OyQYrL9-136" value="" style="html=1;points=[];perimeter=orthogonalPerimeter;fillColor=strokeColor;" vertex="1" parent="1">
          <mxGeometry x="1519" y="538" width="5" height="200" as="geometry" />
        </mxCell>
        <mxCell id="zFmrb3ODmiAA_OyQYrL9-137" style="rounded=0;orthogonalLoop=1;jettySize=auto;html=1;exitX=1;exitY=0.5;exitDx=0;exitDy=0;" edge="1" parent="1">
          <mxGeometry relative="1" as="geometry">
            <mxPoint x="1520" y="612" as="sourcePoint" />
            <mxPoint x="1590" y="612" as="targetPoint" />
          </mxGeometry>
        </mxCell>
        <mxCell id="zFmrb3ODmiAA_OyQYrL9-138" style="rounded=0;orthogonalLoop=1;jettySize=auto;html=1;exitX=1;exitY=0.5;exitDx=0;exitDy=0;" edge="1" parent="1">
          <mxGeometry relative="1" as="geometry">
            <mxPoint x="1520" y="663" as="sourcePoint" />
            <mxPoint x="1590" y="663" as="targetPoint" />
          </mxGeometry>
        </mxCell>
        <mxCell id="zFmrb3ODmiAA_OyQYrL9-139" style="rounded=0;orthogonalLoop=1;jettySize=auto;html=1;exitX=1;exitY=0.5;exitDx=0;exitDy=0;" edge="1" parent="1">
          <mxGeometry relative="1" as="geometry">
            <mxPoint x="1520" y="715" as="sourcePoint" />
            <mxPoint x="1590" y="715" as="targetPoint" />
          </mxGeometry>
        </mxCell>
        <mxCell id="zFmrb3ODmiAA_OyQYrL9-86" style="edgeStyle=orthogonalEdgeStyle;rounded=0;orthogonalLoop=1;jettySize=auto;html=1;" edge="1" parent="1" source="zFmrb3ODmiAA_OyQYrL9-73">
          <mxGeometry relative="1" as="geometry">
            <mxPoint x="1520" y="619" as="targetPoint" />
          </mxGeometry>
        </mxCell>
        <mxCell id="zFmrb3ODmiAA_OyQYrL9-87" value="[اطلاعات وارد شده صحیح است]" style="edgeLabel;html=1;align=center;verticalAlign=middle;resizable=0;points=[];" connectable="0" vertex="1" parent="zFmrb3ODmiAA_OyQYrL9-86">
          <mxGeometry x="0.1142" relative="1" as="geometry">
            <mxPoint x="-15" y="-10" as="offset" />
          </mxGeometry>
        </mxCell>
        <mxCell id="zFmrb3ODmiAA_OyQYrL9-92" value="" style="edgeStyle=orthogonalEdgeStyle;rounded=0;orthogonalLoop=1;jettySize=auto;html=1;exitX=0.888;exitY=0.404;exitDx=0;exitDy=0;exitPerimeter=0;" edge="1" parent="1" source="zFmrb3ODmiAA_OyQYrL9-126" target="zFmrb3ODmiAA_OyQYrL9-91">
          <mxGeometry relative="1" as="geometry">
            <mxPoint x="1799" y="619" as="sourcePoint" />
            <mxPoint x="1970" y="989" as="targetPoint" />
          </mxGeometry>
        </mxCell>
      </root>
    </mxGraphModel>
  </diagram>
</mxfile>
